<svg width="1600" height="900" viewBox="0 0 1600 900" fill="none" xmlns="http://www.w3.org/2000/svg">
  <defs>
    <radialGradient id="a" cx="0" cy="0" r="1" gradientUnits="userSpaceOnUse" gradientTransform="translate(280 180) rotate(28.3) scale(529 396)">
      <stop stop-color="#7C8CFF" stop-opacity="0.55"/>
      <stop offset="1" stop-color="#7C8CFF" stop-opacity="0"/>
    </radialGradient>
    <radialGradient id="b" cx="0" cy="0" r="1" gradientUnits="userSpaceOnUse" gradientTransform="translate(1230 720) rotate(145.6) scale(480 360)">
      <stop stop-color="#6EE7F9" stop-opacity="0.44"/>
      <stop offset="1" stop-color="#6EE7F9" stop-opacity="0"/>
    </radialGradient>
    <radialGradient id="c" cx="0" cy="0" r="1" gradientUnits="userSpaceOnUse" gradientTransform="translate(1100 160) rotate(141.5) scale(330 250)">
      <stop stop-color="#D8B4FE" stop-opacity="0.34"/>
      <stop offset="1" stop-color="#D8B4FE" stop-opacity="0"/>
    </radialGradient>
    <linearGradient id="d" x1="800" y1="0" x2="800" y2="900" gradientUnits="userSpaceOnUse">
      <stop stop-color="#F8FAFF"/>
      <stop offset="1" stop-color="#EEF3FB"/>
    </linearGradient>
    <filter id="blur1" x="-100" y="-100" width="1800" height="1100" color-interpolation-filters="sRGB">
      <feGaussianBlur stdDeviation="48"/>
    </filter>
  </defs>
  <rect width="1600" height="900" fill="url(#d)"/>
  <g filter="url(#blur1)">
    <ellipse cx="280" cy="180" rx="280" ry="220" fill="url(#a)"/>
    <ellipse cx="1220" cy="740" rx="280" ry="220" fill="url(#b)"/>
    <ellipse cx="1110" cy="160" rx="180" ry="140" fill="url(#c)"/>
  </g>
  <path d="M-80 590C155 540 256 653 450 612C622 575 741 434 959 473C1167 510 1269 648 1680 594" stroke="#FFFFFF" stroke-opacity="0.34" stroke-width="3" stroke-linecap="round"/>
  <path d="M-70 300C180 252 348 360 540 329C767 292 911 156 1129 181C1283 199 1391 302 1670 286" stroke="#FFFFFF" stroke-opacity="0.28" stroke-width="3" stroke-linecap="round"/>
</svg>
