<svg xmlns="http://www.w3.org/2000/svg" viewBox="0 0 1600 1000" preserveAspectRatio="xMidYMid slice">
  <defs>
    <linearGradient id="g" x1="0" y1="0" x2="1" y2="1">
      <stop stop-color="#0f172a" offset="0"/>
      <stop stop-color="#1d4ed8" offset="0.48"/>
      <stop stop-color="#9333ea" offset="1"/>
    </linearGradient>
    <radialGradient id="r1" cx="24%" cy="24%" r="42%">
      <stop stop-color="#60a5fa" stop-opacity=".95" offset="0"/>
      <stop stop-color="#60a5fa" stop-opacity="0" offset="1"/>
    </radialGradient>
    <radialGradient id="r2" cx="78%" cy="72%" r="45%">
      <stop stop-color="#f472b6" stop-opacity=".72" offset="0"/>
      <stop stop-color="#f472b6" stop-opacity="0" offset="1"/>
    </radialGradient>
    <filter id="blur"><feGaussianBlur stdDeviation="36"/></filter>
  </defs>
  <rect width="1600" height="1000" fill="url(#g)"/>
  <rect width="1600" height="1000" fill="url(#r1)"/>
  <rect width="1600" height="1000" fill="url(#r2)"/>
  <g filter="url(#blur)" opacity=".82">
    <circle cx="1180" cy="210" r="180" fill="#22d3ee"/>
    <circle cx="380" cy="760" r="230" fill="#a78bfa"/>
    <circle cx="820" cy="510" r="160" fill="#38bdf8"/>
  </g>
  <g fill="none" stroke="#fff" stroke-opacity=".17" stroke-width="2">
    <path d="M120 780 C360 610 520 770 740 590 S1140 300 1480 420"/>
    <path d="M80 300 C340 160 560 330 780 210 S1160 120 1510 260"/>
    <path d="M180 500 C430 380 610 530 820 410 S1200 250 1440 330"/>
  </g>
</svg>
